Coordinates
version=1
nRows=8
nColumns=46
inDegrees=yes

Units are S.I. units (second, meters, Newtons, ...)
Angles are in degrees.

endheader
time	pelvis_tilt	pelvis_list	pelvis_rotation	pelvis_tx	pelvis_ty	pelvis_tz	bb_angle	bb_tx	bb_ty	bb_tz	hip_flexion_r	hip_adduction_r	hip_rotation_r	knee_angle_r	knee_angle_r_beta	ankle_angle_r	subtalar_angle_r	mtp_angle_r	crank_angle_r	hip_flexion_l	hip_adduction_l	hip_rotation_l	knee_angle_l	knee_angle_l_beta	ankle_angle_l	subtalar_angle_l	mtp_angle_l	crank_angle_l	lumbar_extension	lumbar_bending	lumbar_rotation	arm_flex_r	arm_add_r	arm_rot_r	elbow_flex_r	pro_sup_r	wrist_flex_r	wrist_dev_r	arm_flex_l	arm_add_l	arm_rot_l	elbow_flex_l	pro_sup_l	wrist_flex_l	wrist_dev_l
      7.50500000	    -21.07704135	     -6.64322497	      6.82321313	      0.38970925	      1.20917430	     -0.26788308	      0.00000000	      0.50000000	      0.00000000	      0.25000000	     48.52009859	     -1.10156601	     -0.40394882	     89.30844802	      1.55872647	    -12.25548404	     -7.23280982	      0.00000000	      0.00000000	     34.04335106	     -4.36322493	      5.23829479	     32.11955615	      0.56059201	     -0.61110047	     -6.26424124	      0.00000000	      0.00000000	    -63.00401989	      9.65473494	     -6.77640348	     54.66386771	    -10.81137238	     27.97330798	     73.03764927	     51.31130884	      0.00000000	      0.00000000	     42.27844679	    -24.16579124	     18.02931068	     91.23316649	     56.54366600	      0.00000000	      0.00000000
      7.51000000	    -21.04402322	     -7.21655652	      5.64970222	      0.39054451	      1.20734655	     -0.26828800	      0.00000000	      0.50000000	      0.00000000	      0.25000000	     49.71080492	     -0.26393567	     -0.20724642	     91.17892279	      1.59137241	    -10.31583125	     -6.93859653	      0.00000000	      0.00000000	     32.32442994	     -5.71600877	      4.11262423	     29.96771862	      0.52303536	     -1.15241592	     -5.22605371	      0.00000000	      0.00000000	    -62.95605396	      9.67548844	     -6.03235564	     55.14754957	    -10.94926065	     29.06340122	     72.97827101	     51.42296255	      0.00000000	      0.00000000	     41.34315760	    -24.40703640	     17.37548903	     91.50589109	     56.50500159	      0.00000000	      0.00000000
      7.51500000	    -21.04106463	     -7.87902069	      4.62874819	      0.39132931	      1.20539831	     -0.26886868	      0.00000000	      0.50000000	      0.00000000	      0.25000000	     50.94448045	      0.47256766	     -0.26534989	     92.92330375	      1.62181760	     -8.78221922	     -6.86124337	      0.00000000	      0.00000000	     30.71376170	     -7.06593474	      2.94431617	     27.97939082	      0.48833249	     -1.69051959	     -3.88138134	      0.00000000	      0.00000000	    -62.84721906	     10.02025174	     -6.01214101	     56.37654148	    -10.64978085	     31.74062417	     71.91614613	     51.54848294	      0.00000000	      0.00000000	     39.41679416	    -25.15632227	     15.49141534	     92.69043078	     56.43443608	      0.00000000	      0.00000000
      7.52000000	    -21.01823538	     -8.30717278	      3.45606232	      0.39215130	      1.20366794	     -0.26934161	      0.00000000	      0.50000000	      0.00000000	      0.25000000	     52.19481329	      1.11574656	     -0.09285890	     94.54814939	      1.65017651	     -7.55258248	     -6.60202314	      0.00000000	      0.00000000	     28.95318247	     -8.26903813	      1.29750451	     25.99774514	      0.45374625	     -2.12031809	     -2.16817079	      0.00000000	      0.00000000	    -62.82463811	     10.17870797	     -6.06218880	     57.37115429	     -9.84867259	     33.37930361	     70.92770207	     51.57364376	      0.00000000	      0.00000000	     37.58468427	    -25.95131511	     13.81134967	     93.70949421	     56.35088734	      0.00000000	      0.00000000
      7.52500000	    -21.19647040	     -8.86784593	      2.64009426	      0.39266883	      1.20171137	     -0.27056802	      0.00000000	      0.50000000	      0.00000000	      0.25000000	     53.53542715	      1.44268027	     -0.66980206	     96.10705745	      1.67738459	     -6.16766431	     -7.29568451	      0.00000000	      0.00000000	     27.54755648	     -9.22168684	      0.48738242	     24.15950324	      0.42166288	     -2.85089183	     -1.31332799	      0.00000000	      0.00000000	    -62.53588015	     10.58200305	     -5.29029051	     57.58841467	     -9.84029495	     33.60514960	     70.93861992	     51.59942058	      0.00000000	      0.00000000	     36.91374695	    -26.06709633	     13.72509035	     93.59234934	     56.32545527	      0.00000000	      0.00000000
      7.53000000	    -20.87663106	     -9.12651790	      1.30454642	      0.39423490	      1.20085189	     -0.27074318	      0.00000000	      0.50000000	      0.00000000	      0.25000000	     54.23590906	      2.09135021	     -0.82816504	     97.52747415	      1.70217554	     -5.02426492	     -8.52853917	      0.00000000	      0.00000000	     25.26113097	    -10.36250735	     -2.09012522	     22.13629258	      0.38635119	     -3.36292263	      1.13254132	      0.00000000	      0.00000000	    -62.84948905	     10.28446484	     -4.61691246	     57.98491111	     -9.99043278	     34.87447443	     70.73905359	     51.70925779	      0.00000000	      0.00000000	     36.05420904	    -26.00797615	     12.96980534	     93.55278763	     56.22187524	      0.00000000	      0.00000000
      7.53500000	    -20.74958211	     -9.58000564	      0.33117455	      0.39531061	      1.19962771	     -0.27142060	      0.00000000	      0.50000000	      0.00000000	      0.25000000	     55.13174089	      2.56313470	     -1.37205360	     98.83059908	      1.72491936	     -3.89268412	     -9.43295082	      0.00000000	      0.00000000	     23.45036180	    -11.41664962	     -4.03078660	     20.50975567	      0.35796277	     -3.67380731	      3.54869376	      0.00000000	      0.00000000	    -62.97202940	     10.49803077	     -4.15345483	     58.70082711	     -9.97034521	     36.46058377	     70.39661514	     51.82726543	      0.00000000	      0.00000000	     34.96333191	    -26.17210269	     11.97621765	     93.81490703	     56.13655625	      0.00000000	      0.00000000
      7.54000000	    -20.81195050	    -10.01757446	     -0.71994561	      0.39640022	      1.19831701	     -0.27196856	      0.00000000	      0.50000000	      0.00000000	      0.25000000	     56.26466951	      3.05670285	     -1.73830720	     99.97546267	      1.74490099	     -2.96988164	     -9.95366054	      0.00000000	      0.00000000	     21.84407111	    -12.44165660	     -6.24046931	     18.91207259	      0.33007794	     -4.17473807	      7.10218432	      0.00000000	      0.00000000	    -63.06602626	     10.95440819	     -4.82890008	     60.21370244	     -8.54418620	     39.03532569	     68.90148094	     51.85383955	      0.00000000	      0.00000000	     32.26617838	    -27.23300114	      9.22566267	     95.47799667	     56.05008878	      0.00000000	      0.00000000
